<?xml version="1.0" encoding="UTF-8" standalone="no"?>
<!-- Created with Inkscape (http://www.inkscape.org/) -->

<svg
   width="475.59167mm"
   height="100.0001mm"
   viewBox="0 0 475.59167 100.0001"
   version="1.1"
   id="svg5"
   xmlns:inkscape="http://www.inkscape.org/namespaces/inkscape"
   xmlns:sodipodi="http://sodipodi.sourceforge.net/DTD/sodipodi-0.dtd"
   xmlns="http://www.w3.org/2000/svg"
   xmlns:svg="http://www.w3.org/2000/svg">
  <sodipodi:namedview
     id="namedview7"
     pagecolor="#505050"
     bordercolor="#ffffff"
     borderopacity="1"
     inkscape:showpageshadow="0"
     inkscape:pageopacity="0"
     inkscape:pagecheckerboard="1"
     inkscape:deskcolor="#505050"
     inkscape:document-units="mm"
     showgrid="false"
     inkscape:zoom="1.0204836"
     inkscape:cx="1307.2233"
     inkscape:cy="0.97992751"
     inkscape:window-width="1920"
     inkscape:window-height="995"
     inkscape:window-x="0"
     inkscape:window-y="0"
     inkscape:window-maximized="1"
     inkscape:current-layer="layer1" />
  <defs
     id="defs2" />
  <g
     inkscape:label="Layer 1"
     inkscape:groupmode="layer"
     id="layer1"
     transform="translate(-369.22242,54.858668)">
    <g
       id="g11513"
       inkscape:export-filename="logo.svg"
       inkscape:export-xdpi="96"
       inkscape:export-ydpi="96">
      <path
         id="path11498"
         style="fill:#ff0000;fill-opacity:1;stroke-width:0.999998;stroke-linecap:square;paint-order:markers fill stroke"
         d="M 369.22242,-54.858667 V 41.808301 L 392.22257,3.4747233 V -54.858667 Z" />
      <path
         id="rect9853"
         style="fill:#ff0000;fill-opacity:1;stroke-width:0.999998;stroke-linecap:square;paint-order:markers fill stroke"
         d="M 394.22245,-54.858667 V 45.141431 H 417.2226 V -54.858667 Z m 25.00002,0 V 45.141431 h 23.00015 V -54.858667 Z m 25.00003,0 V 45.141431 h 23.00014 V -54.858667 Z" />
      <path
         id="path11495"
         style="fill:#ff0000;fill-opacity:1;stroke-width:0.999998;stroke-linecap:square;paint-order:markers fill stroke"
         d="M 394.22245,-54.858667 V 45.141431 H 417.2226 V -54.858667 Z m 25.00002,0 V 45.141431 h 23.00015 V -54.858667 Z m 25.00003,0 V 45.141431 h 23.00014 V -54.858667 Z" />
    </g>
    <path
       id="text13021"
       style="font-style:italic;font-variant:normal;font-weight:normal;font-stretch:normal;font-size:43.5172px;font-family:'Product Sans';-inkscape-font-specification:'Product Sans Italic';fill:#ffffff;fill-opacity:1;stroke-width:1;stroke-linecap:square;paint-order:markers fill stroke"
       d="m 547.89627,3.5388021 c -0.78331,0 -1.45072,0.2756056 -2.00194,0.8268229 -0.55122,0.5512173 -0.82683,1.2186362 -0.82683,2.001945 0,0.7833088 0.27561,1.4507277 0.82683,2.001945 0.55122,0.5512173 1.21863,0.8268229 2.00194,0.8268229 0.78331,0 1.45021,-0.2756056 2.00143,-0.8268229 0.55122,-0.5512173 0.82682,-1.2186362 0.82682,-2.001945 0,-0.7833088 -0.2756,-1.4507277 -0.82682,-2.001945 -0.55122,-0.5512173 -1.21812,-0.8268229 -2.00143,-0.8268229 z M 479.31286,3.8871012 V 35.045406 h 11.88041 c 2.64004,0 4.85929,-0.841213 6.658,-2.523877 1.85673,-1.682663 2.78484,-3.800611 2.78484,-6.353617 0,-1.653652 -0.4782,-3.118578 -1.43557,-4.395081 -0.95738,-1.305514 -2.23411,-2.219745 -3.82974,-2.741951 v -0.173633 c 2.81411,-1.247492 4.22093,-3.409146 4.22093,-6.484359 0,-2.4369606 -0.88441,-4.4530971 -2.6541,-6.0487262 -1.7697,-1.6246405 -3.88765,-2.4370606 -6.35362,-2.4370606 z m 48.47818,0 V 35.045406 h 4.00337 V 3.8871012 Z m 8.87749,0 V 35.045406 h 4.00338 V 3.8871012 Z m 77.15602,0 V 35.045406 h 4.00337 V 16.550411 l -0.17363,-5.221904 h 0.17363 l 9.74824,17.102316 h 2.34973 l 9.74773,-17.102316 h 0.17415 l -0.17415,5.221904 v 18.494995 h 4.00389 V 3.8871012 h -4.00389 L 628.8381,22.86062 h -0.17415 L 617.82792,3.8871012 Z m 116.01669,0 V 35.045406 h 4.00389 v -6.832141 l 3.26388,-3.220475 6.65799,10.052616 h 4.8302 v -0.174149 l -8.70334,-12.706718 8.31163,-8.26823 V 13.72216 h -5.13457 l -9.22579,9.356018 V 3.8871012 Z m 31.28905,0 V 35.045406 h 11.88041 c 2.64004,0 4.85928,-0.841213 6.65799,-2.523877 1.85673,-1.682663 2.78484,-3.800611 2.78484,-6.353617 0,-1.653652 -0.47871,-3.118578 -1.43609,-4.395081 -0.95737,-1.305514 -2.23359,-2.219745 -3.82922,-2.741951 v -0.173633 c 2.81411,-1.247492 4.22093,-3.409146 4.22093,-6.484359 0,-2.4369606 -0.88492,-4.4530971 -2.65462,-6.0487262 -1.76969,-1.6246405 -3.88713,-2.4370606 -6.3531,-2.4370606 z m 48.47817,0 V 35.045406 h 4.00338 V 3.8871012 Z m 8.8775,0 V 35.045406 h 4.00337 V 3.8871012 Z M 483.31675,7.7168416 h 7.44141 c 1.36354,0 2.50915,0.4787106 3.43751,1.4360881 0.92837,0.9863893 1.39268,2.0888113 1.39268,3.3072913 0,1.247492 -0.47871,2.364311 -1.43608,3.3507 -0.95738,0.957378 -2.1467,1.436088 -3.56826,1.436088 h -7.26726 z m 281.81691,0 h 7.44192 c 1.36354,0 2.50915,0.4787106 3.43752,1.4360881 0.92836,0.9863893 1.39268,2.0888113 1.39268,3.3072913 0,1.247492 -0.47871,2.364311 -1.43609,3.3507 -0.95738,0.957378 -2.1467,1.436088 -3.56826,1.436088 h -7.26777 z m -251.3552,5.3087204 c -3.07521,0 -5.59937,1.088025 -7.57215,3.263883 -1.97278,2.146846 -2.95899,4.844799 -2.95899,8.09408 0,3.278292 1.01552,5.991158 3.04632,8.138004 2.0308,2.146847 4.61255,3.219959 7.74578,3.219959 2.14685,0 4.06169,-0.507505 5.74436,-1.522905 1.71167,-1.0154 3.04651,-2.422222 4.00389,-4.220931 l -3.56878,-1.740979 c -1.45057,2.553007 -3.45231,3.829741 -6.00532,3.829741 -1.85673,0 -3.45226,-0.638626 -4.78678,-1.915129 -1.33453,-1.276503 -2.03074,-2.95893 -2.08877,-5.047754 h 16.75402 l 0.0434,-0.435115 c 0,-3.684453 -0.94251,-6.54232 -2.82825,-8.573121 -1.85673,-2.059812 -4.36649,-3.089733 -7.52874,-3.089733 z m 52.09036,0 c -1.36354,0 -2.68398,0.348106 -3.96048,1.04438 -1.24749,0.696275 -2.17561,1.566799 -2.78485,2.61121 h -0.17415 V 13.72216 h -3.82974 v 21.323246 h 4.00389 V 23.252327 c 0,-1.798709 0.53682,-3.336135 1.61024,-4.612638 1.07343,-1.305515 2.40775,-1.958537 4.00338,-1.958537 3.42334,0 5.17879,1.740531 5.26582,5.221904 v 13.14235 h 4.00338 V 21.64209 c 0,-2.756087 -0.71061,-4.874034 -2.13217,-6.353618 -1.39255,-1.508594 -3.39429,-2.26291 -6.00532,-2.26291 z m 21.5408,0 c -2.78509,0 -5.17865,1.102422 -7.18044,3.307291 -1.97277,2.204869 -2.95899,4.888425 -2.95899,8.050672 0,3.162246 0.98622,5.860715 2.95899,8.094596 2.00179,2.175858 4.39535,3.263367 7.18044,3.263367 1.5086,0 2.90102,-0.318796 4.17753,-0.957048 1.30551,-0.667263 2.33543,-1.56658 3.08973,-2.698026 h 0.17415 v 2.045353 c 0,2.291903 -0.60932,4.090538 -1.8278,5.396053 -1.21848,1.305515 -2.9153,1.95802 -5.09116,1.95802 -1.42156,0 -2.6695,-0.3769 -3.74292,-1.131197 -1.07343,-0.754298 -1.82774,-1.755426 -2.26291,-3.002918 l -3.78582,1.56683 c 0.31913,0.928366 0.78344,1.769579 1.39268,2.523877 0.60924,0.754297 1.33425,1.407319 2.17558,1.958536 0.87034,0.551218 1.82776,0.971825 2.87218,1.261939 1.04441,0.319126 2.16174,0.478524 3.35121,0.478524 3.24928,0 5.86034,-0.986215 7.83312,-2.958993 1.94376,-1.943766 2.91558,-4.627322 2.91558,-8.050671 V 13.72216 h -3.82974 v 2.958992 h -0.17415 c -0.7543,-1.131446 -1.78422,-2.016366 -3.08973,-2.654618 -1.27651,-0.667263 -2.66893,-1.000972 -4.17753,-1.000972 z m 69.2795,0 c -3.8005,0 -6.67277,1.392941 -8.61653,4.178039 l 3.52485,2.218986 c 1.30551,-1.885743 3.07535,-2.828251 5.30923,-2.828251 1.47959,0 2.77072,0.493107 3.87315,1.479496 1.10244,0.957378 1.65365,2.132301 1.65365,3.52485 v 0.913639 c -1.53761,-0.870343 -3.49616,-1.305347 -5.8751,-1.305347 -2.78509,0 -5.01873,0.652506 -6.7014,1.95802 -1.65365,1.305515 -2.48046,3.060959 -2.48046,5.265829 0,2.088823 0.78311,3.829354 2.34972,5.221903 1.59563,1.392549 3.56858,2.088762 5.9185,2.088762 2.75609,0 4.96094,-1.218114 6.61459,-3.655074 h 0.17415 v 2.958992 h 3.82922 v -13.14235 c 0,-2.756087 -0.85561,-4.917224 -2.56728,-6.483842 -1.71168,-1.595629 -4.04713,-2.393652 -7.00629,-2.393652 z m 24.67394,0 c -1.24749,0 -2.50931,0.348106 -3.78581,1.04438 -1.2475,0.696275 -2.17561,1.566799 -2.78485,2.61121 h -0.17415 V 13.72216 h -3.82974 v 21.323246 h 4.00389 V 23.252327 c 0,-1.769697 0.5219,-3.307123 1.56632,-4.612638 1.04441,-1.305515 2.33554,-1.958537 3.87314,-1.958537 1.71168,0 2.93031,0.449917 3.6556,1.349272 0.72528,0.870343 1.08778,2.305958 1.08778,4.307747 v 12.707235 h 4.00338 V 23.252327 c 0,-1.769697 0.52242,-3.307123 1.56683,-4.612638 1.04441,-1.305515 2.33554,-1.958537 3.87315,-1.958537 1.71167,0 2.92978,0.449917 3.65507,1.349272 0.72529,0.870343 1.08831,2.305958 1.08831,4.307747 v 12.707235 h 4.00337 V 21.729423 c 0,-2.785098 -0.66742,-4.932356 -2.00195,-6.440951 -1.33452,-1.508594 -3.23445,-2.26291 -5.70042,-2.26291 -3.13324,0 -5.5849,1.363631 -7.35459,4.090706 -0.55122,-1.276503 -1.42174,-2.277115 -2.61121,-3.002401 -1.18947,-0.725286 -2.5675,-1.088305 -4.13412,-1.088305 z m 34.37878,0 c -3.8005,0 -6.67276,1.392941 -8.61653,4.178039 l 3.52485,2.218986 c 1.30552,-1.885743 3.07536,-2.828251 5.30924,-2.828251 1.47958,0 2.77071,0.493107 3.87315,1.479496 1.10243,0.957378 1.65364,2.132301 1.65364,3.52485 v 0.913639 c -1.5376,-0.870343 -3.49615,-1.305347 -5.87509,-1.305347 -2.7851,0 -5.01874,0.652506 -6.7014,1.95802 -1.65365,1.305515 -2.48047,3.060959 -2.48047,5.265829 0,2.088823 0.78311,3.829354 2.34973,5.221903 1.59563,1.392549 3.56857,2.088762 5.9185,2.088762 2.75609,0 4.96093,-1.218114 6.61458,-3.655074 h 0.17415 v 2.958992 h 3.82974 v -13.14235 c 0,-2.756087 -0.85612,-4.917224 -2.5678,-6.483842 -1.71167,-1.595629 -4.04712,-2.393652 -7.00629,-2.393652 z m 79.85404,0 c -3.07521,0 -5.59937,1.088025 -7.57215,3.263883 -1.97277,2.146846 -2.95899,4.844799 -2.95899,8.09408 0,3.278292 1.01553,5.991158 3.04633,8.138004 2.0308,2.146847 4.61254,3.219959 7.74578,3.219959 2.14684,0 4.06169,-0.507505 5.74435,-1.522905 1.71168,-1.0154 3.04651,-2.422222 4.00389,-4.220931 l -3.56877,-1.740979 c -1.45058,2.553007 -3.45232,3.829741 -6.00532,3.829741 -1.85673,0 -3.45226,-0.638626 -4.78679,-1.915129 -1.33453,-1.276503 -2.03074,-2.95893 -2.08876,-5.047754 h 16.75401 l 0.0434,-0.435115 c 0,-3.684453 -0.9425,-6.54232 -2.82825,-8.573121 -1.85673,-2.059812 -4.36649,-3.089733 -7.52874,-3.089733 z m 39.64409,0 c -3.80049,0 -6.67224,1.392941 -8.61601,4.178039 l 3.52485,2.218986 c 1.30552,-1.885743 3.07484,-2.828251 5.30872,-2.828251 1.47959,0 2.77072,0.493107 3.87315,1.479496 1.10243,0.957378 1.65365,2.132301 1.65365,3.52485 v 0.913639 c -1.53761,-0.870343 -3.49564,-1.305347 -5.87458,-1.305347 -2.7851,0 -5.01925,0.652506 -6.70192,1.95802 -1.65365,1.305515 -2.48047,3.060959 -2.48047,5.265829 0,2.088823 0.78363,3.829354 2.35025,5.221903 1.59563,1.392549 3.56806,2.088762 5.91798,2.088762 2.75609,0 4.96093,-1.218114 6.61459,-3.655074 h 0.17415 v 2.958992 h 3.82974 v -13.14235 c 0,-2.756087 -0.85613,-4.917224 -2.56781,-6.483842 -1.71167,-1.595629 -4.04712,-2.393652 -7.00629,-2.393652 z M 545.89433,13.72216 v 21.323246 h 4.00337 V 13.72216 Z m -32.20269,2.958992 c 1.82772,0 3.27825,0.493108 4.35167,1.479497 1.10244,0.957377 1.71175,2.176007 1.8278,3.65559 H 507.6424 c 0.34814,-1.566617 1.05926,-2.814041 2.13269,-3.742407 1.10243,-0.928366 2.40796,-1.39268 3.91655,-1.39268 z m 74.37066,0 c 1.94376,0 3.55421,0.725523 4.83071,2.176095 1.30551,1.450572 1.95802,3.292397 1.95802,5.526278 0,2.291903 -0.65251,4.148642 -1.95802,5.570202 -1.24749,1.421561 -2.85794,2.132687 -4.83071,2.132687 -1.91476,0 -3.52468,-0.725523 -4.8302,-2.176095 -1.30551,-1.42156 -1.95854,-3.263902 -1.95854,-5.526794 0,-2.233881 0.65303,-4.075706 1.95854,-5.526278 1.30552,-1.450572 2.91544,-2.176095 4.8302,-2.176095 z m 207.44677,0 c 1.82772,0 3.27824,0.493108 4.35167,1.479497 1.10243,0.957377 1.71175,2.176007 1.82779,3.65559 h -12.22871 c 0.34814,-1.566617 1.05927,-2.814041 2.13269,-3.742407 1.10243,-0.928366 2.40796,-1.39268 3.91656,-1.39268 z m -312.19232,4.308265 h 7.87652 c 1.53761,0 2.81383,0.507504 3.82923,1.522904 1.0154,1.0154 1.52342,2.205237 1.52342,3.568774 0,1.392549 -0.49363,2.596266 -1.48001,3.611666 -1.0154,1.015401 -2.24791,1.522905 -3.69849,1.522905 h -8.05067 z m 281.81691,0 h 7.87704 c 1.5376,0 2.81382,0.507504 3.82922,1.522904 1.0154,1.0154 1.52342,2.205237 1.52342,3.568774 0,1.392549 -0.49362,2.596266 -1.48001,3.611666 -1.0154,1.015401 -2.24843,1.522905 -3.699,1.522905 h -8.05067 z M 657.21105,24.42745 c 2.23388,0 3.97493,0.493107 5.22242,1.479496 0,1.682663 -0.66742,3.147589 -2.00195,4.39508 -1.30551,1.247492 -2.79975,1.871204 -4.48241,1.871204 -1.18947,0 -2.23379,-0.348106 -3.13314,-1.044381 -0.87035,-0.696274 -1.30535,-1.566798 -1.30535,-2.61121 0,-1.160457 0.53681,-2.132275 1.61024,-2.915584 1.10243,-0.783309 2.46555,-1.174605 4.09019,-1.174605 z m 59.05324,0 c 2.23388,0 3.97441,0.493107 5.2219,1.479496 0,1.682663 -0.66741,3.147589 -2.00194,4.39508 -1.30552,1.247492 -2.79923,1.871204 -4.4819,1.871204 -1.18947,0 -2.2343,-0.348106 -3.13366,-1.044381 -0.87034,-0.696274 -1.30534,-1.566798 -1.30534,-2.61121 0,-1.160457 0.53681,-2.132275 1.61023,-2.915584 1.10244,-0.783309 2.46607,-1.174605 4.09071,-1.174605 z m 119.49813,0 c 2.23388,0 3.97441,0.493107 5.22191,1.479496 0,1.682663 -0.66742,3.147589 -2.00195,4.39508 -1.30551,1.247492 -2.79923,1.871204 -4.4819,1.871204 -1.18946,0 -2.23378,-0.348106 -3.13314,-1.044381 -0.87034,-0.696274 -1.30586,-1.566798 -1.30586,-2.61121 0,-1.160457 0.53681,-2.132275 1.61024,-2.915584 1.10243,-0.783309 2.46606,-1.174605 4.0907,-1.174605 z" />
  </g>
</svg>
